<svg width="64" height="64" viewBox="0 0 64 64" fill="none" xmlns="http://www.w3.org/2000/svg">
  <rect width="64" height="64" rx="18" fill="#07131B"/>
  <path d="M12 14C12 10.6863 14.6863 8 18 8H46C49.3137 8 52 10.6863 52 14V50C52 53.3137 49.3137 56 46 56H18C14.6863 56 12 53.3137 12 50V14Z" fill="#C9FF3D"/>
  <path d="M17 32H47M32 13V51" stroke="#07131B" stroke-width="3" opacity="0.28"/>
  <circle cx="44" cy="17" r="6" fill="#FF6B4A" stroke="#07131B" stroke-width="3"/>
  <path d="M20 40C22.8 43.5 29.2 43.6 29.2 39.4C29.2 35.4 20.8 37.3 20.8 31.3C20.8 26.2 28.1 26.1 30.5 29.5M35 43V27H41.1C48.5 27 48.5 37.3 41.1 37.3H35" stroke="#07131B" stroke-width="4" stroke-linecap="round" stroke-linejoin="round"/>
</svg>
